<?xml version="1.0" encoding="UTF-8"?>
<svg width="16px" height="20px" viewBox="0 0 16 20" version="1.1" xmlns="http://www.w3.org/2000/svg" xmlns:xlink="http://www.w3.org/1999/xlink">
    <!-- Generator: Sketch 51.2 (57519) - http://www.bohemiancoding.com/sketch -->
    <title>quiz-submissions</title>
    <desc>Created with Sketch.</desc>
    <defs></defs>
    <g id="Desktop" stroke="none" stroke-width="1" fill="none" fill-rule="evenodd">
        <g id="Course-Tiles" transform="translate(-5249.000000, -2658.000000)" fill="#565A5C">
            <g id="Image-/-Title-/-Notification-/-Due-Date-Copy-6" transform="translate(5014.000000, 2313.000000)">
                <g id="Content" transform="translate(21.000000, 120.000000)">
                    <g id="Notifications" transform="translate(83.000000, 216.000000)">
                        <g id="Group-28" transform="translate(131.000000, 0.000000)">
                            <g id="quiz-submissions" transform="translate(0.000000, 9.000000)">
                                <path d="M13,3.34066108e-16 L3,3.34066108e-16 C1.3451972,0.00494220167 0.00494220167,1.3451972 0,3 L0,16.99 C0.00494220167,18.6448028 1.3451972,19.9850578 3,19.99 L13,19.99 C14.6548028,19.9850578 15.9950578,18.6448028 16,16.99 L16,3 C15.9950578,1.3451972 14.6548028,0.00494220167 13,3.34066108e-16 Z M14,16.99 C13.9914251,17.5386937 13.5486937,17.9814251 13,17.99 L3,17.99 C2.45130634,17.9814251 2.0085749,17.5386937 2,16.99 L2,3 C2.0085749,2.45130634 2.45130634,2.0085749 3,2 L13,2 C13.549,2.009 13.991,2.451 14,3 L14,16.99 Z" id="Shape"></path>
                                <circle id="Oval" cx="8" cy="15" r="1"></circle>
                                <path d="M12,8 C12.0014703,9.82385064 10.766642,11.416779 9,11.87 L9,12 C9,12.5522847 8.55228475,13 8,13 C7.44771525,13 7,12.5522847 7,12 L7,11 C7,10.4477153 7.44771525,10 8,10 C9.1045695,10 10,9.1045695 10,8 C10,6.8954305 9.1045695,6 8,6 C6.8954305,6 6,6.8954305 6,8 C6,8.55228475 5.55228475,9 5,9 C4.44771525,9 4,8.55228475 4,8 C4,5.790861 5.790861,4 8,4 C10.209139,4 12,5.790861 12,8 Z" id="Shape"></path>
                            </g>
                        </g>
                    </g>
                </g>
            </g>
        </g>
    </g>
</svg>